<svg xmlns="http://www.w3.org/2000/svg" width="200" height="200" viewBox="0 0 200 200" version="1.1"><path d="M 10.388 4.980 C 3.725 7.672, 2.125 17.009, 6.409 28.205 C 10.179 38.055, 15.604 50.802, 16.629 52.215 C 18.599 54.932, 21.802 61.728, 23.598 67 C 24.628 70.025, 26.663 74.569, 28.120 77.098 C 29.577 79.627, 31.097 82.777, 31.499 84.098 C 31.901 85.419, 33.043 88.075, 34.038 90 C 36.905 95.549, 41 105.141, 41 106.306 C 41 106.892, 41.810 108.300, 42.799 109.436 C 43.789 110.571, 45.621 114.200, 46.870 117.500 C 50.287 126.527, 54.257 135.301, 55.747 137.120 C 56.478 138.011, 58.437 142.278, 60.102 146.601 C 61.767 150.924, 64.479 157.170, 66.130 160.481 C 72.720 173.696, 74.998 178.730, 76.711 183.853 C 78.005 187.724, 79.597 190.078, 82.460 192.353 C 85.940 195.119, 87.170 195.500, 92.629 195.500 C 97.873 195.500, 99.255 195.111, 101.514 193 C 102.986 191.625, 104.817 189.295, 105.584 187.821 C 107.146 184.820, 115 154.762, 115 151.787 C 115 149.743, 117.571 140.807, 119.110 137.500 C 119.622 136.400, 120.860 132.577, 121.861 129.003 L 123.680 122.507 128.590 121.374 C 131.291 120.751, 146.325 116.819, 162 112.636 C 187.846 105.739, 190.756 104.749, 193.250 102 C 195.655 99.348, 196 98.156, 196 92.487 C 196 86.465, 195.748 85.727, 192.444 82.070 C 190.340 79.741, 187.585 77.863, 185.694 77.469 C 183.937 77.102, 179.800 75.323, 176.500 73.514 C 173.200 71.705, 167.350 68.989, 163.500 67.478 C 159.650 65.967, 151.100 62.165, 144.500 59.029 C 137.900 55.893, 130.475 52.521, 128 51.537 C 121.815 49.078, 116.788 46.723, 115 45.446 C 114.175 44.857, 111.475 43.570, 109 42.586 C 101.668 39.670, 93.243 35.929, 80.500 29.929 C 73.900 26.822, 66.700 23.717, 64.500 23.029 C 62.300 22.341, 58.475 20.598, 56 19.155 C 51.271 16.399, 37.842 10.449, 27.205 6.398 C 20.839 3.973, 14.254 3.418, 10.388 4.980 M 12.301 12.608 C 9.252 15.657, 9.437 17.112, 14.449 29.500 C 18.869 40.424, 21.183 45, 22.286 45 C 22.744 45, 22.809 45.500, 22.431 46.112 C 22.053 46.723, 22.262 47.544, 22.895 47.935 C 23.529 48.327, 24.217 49.529, 24.424 50.606 C 24.632 51.684, 26.393 55.926, 28.338 60.033 C 30.282 64.140, 34.377 72.794, 37.437 79.264 C 40.497 85.734, 43 91.490, 43 92.054 C 43 92.618, 43.991 94.974, 45.202 97.290 C 46.413 99.605, 47.313 101.837, 47.202 102.250 C 47.091 102.662, 47.418 103, 47.928 103 C 48.439 103, 49.740 105.362, 50.821 108.250 C 51.901 111.138, 54.605 117.438, 56.828 122.250 C 59.052 127.063, 60.562 131.007, 60.185 131.015 C 59.808 131.024, 59.983 131.361, 60.573 131.765 C 62.115 132.821, 67.750 144.795, 69.537 150.812 C 70.373 153.628, 71.727 156.307, 72.545 156.765 C 73.363 157.223, 75.088 160.509, 76.379 164.068 C 79.992 174.029, 85.484 185.322, 87.596 187.132 C 91.152 190.179, 93.770 190.338, 96.233 187.657 C 100.389 183.134, 100.983 182.118, 100.382 180.554 C 100.054 179.699, 100.245 179, 100.805 179 C 101.366 179, 102.131 177.088, 102.506 174.750 C 103.369 169.374, 107.155 153.651, 110.917 139.827 C 112.514 133.957, 113.537 128.870, 113.189 128.523 C 112.842 128.175, 113.053 127.578, 113.658 127.196 C 114.263 126.813, 115.376 124.299, 116.131 121.610 C 117.411 117.053, 117.811 116.627, 122.002 115.360 C 124.476 114.612, 127.625 113.776, 129 113.502 C 130.375 113.228, 135.775 112.061, 141 110.909 C 146.225 109.757, 151.738 108.580, 153.250 108.294 C 154.762 108.007, 156 107.427, 156 107.003 C 156 106.580, 157.012 106.001, 158.250 105.718 C 171.348 102.717, 179.933 100.787, 182 100.378 C 183.375 100.106, 185.505 99.229, 186.734 98.429 C 190.954 95.682, 190.980 88.284, 186.777 86.283 C 185.525 85.686, 180.675 83.416, 176 81.239 C 171.325 79.061, 164.520 75.866, 160.877 74.140 C 157.235 72.413, 153.916 71, 153.502 71 C 152.396 71, 140.585 65.690, 140 64.929 C 139.177 63.859, 133.199 61, 131.785 61 C 131.062 61, 127.777 59.704, 124.485 58.119 C 108.493 50.421, 103.006 47.967, 86.603 41.177 C 84.460 40.290, 82.193 39.050, 81.565 38.422 C 80.937 37.794, 76.356 35.671, 71.385 33.706 C 66.414 31.740, 57.102 27.610, 50.691 24.529 C 44.281 21.447, 38.815 18.913, 38.546 18.898 C 38.276 18.883, 33.889 17.089, 28.796 14.913 C 16.615 9.706, 15.376 9.533, 12.301 12.608" stroke="none" fill="#2e2e2e" fill-rule="evenodd"/><path d="M 12.301 12.608 C 9.252 15.657, 9.437 17.112, 14.449 29.500 C 18.869 40.424, 21.183 45, 22.286 45 C 22.744 45, 22.809 45.500, 22.431 46.112 C 22.053 46.723, 22.262 47.544, 22.895 47.935 C 23.529 48.327, 24.217 49.529, 24.424 50.606 C 24.632 51.684, 26.393 55.926, 28.338 60.033 C 30.282 64.140, 34.377 72.794, 37.437 79.264 C 40.497 85.734, 43 91.490, 43 92.054 C 43 92.618, 43.991 94.974, 45.202 97.290 C 46.413 99.605, 47.313 101.837, 47.202 102.250 C 47.091 102.662, 47.418 103, 47.928 103 C 48.439 103, 49.740 105.362, 50.821 108.250 C 51.901 111.138, 54.605 117.438, 56.828 122.250 C 59.052 127.063, 60.562 131.007, 60.185 131.015 C 59.808 131.024, 59.983 131.361, 60.573 131.765 C 62.115 132.821, 67.750 144.795, 69.537 150.812 C 70.373 153.628, 71.727 156.307, 72.545 156.765 C 73.363 157.223, 75.088 160.509, 76.379 164.068 C 79.992 174.029, 85.484 185.322, 87.596 187.132 C 91.152 190.179, 93.770 190.338, 96.233 187.657 C 100.389 183.134, 100.983 182.118, 100.382 180.554 C 100.054 179.699, 100.245 179, 100.805 179 C 101.366 179, 102.131 177.088, 102.506 174.750 C 103.369 169.374, 107.155 153.651, 110.917 139.827 C 112.514 133.957, 113.537 128.870, 113.189 128.523 C 112.842 128.175, 113.053 127.578, 113.658 127.196 C 114.263 126.813, 115.376 124.299, 116.131 121.610 C 117.411 117.053, 117.811 116.627, 122.002 115.360 C 124.476 114.612, 127.625 113.776, 129 113.502 C 130.375 113.228, 135.775 112.061, 141 110.909 C 146.225 109.757, 151.738 108.580, 153.250 108.294 C 154.762 108.007, 156 107.427, 156 107.003 C 156 106.580, 157.012 106.001, 158.250 105.718 C 171.348 102.717, 179.933 100.787, 182 100.378 C 183.375 100.106, 185.505 99.229, 186.734 98.429 C 190.954 95.682, 190.980 88.284, 186.777 86.283 C 185.525 85.686, 180.675 83.416, 176 81.239 C 171.325 79.061, 164.520 75.866, 160.877 74.140 C 157.235 72.413, 153.916 71, 153.502 71 C 152.396 71, 140.585 65.690, 140 64.929 C 139.177 63.859, 133.199 61, 131.785 61 C 131.062 61, 127.777 59.704, 124.485 58.119 C 108.493 50.421, 103.006 47.967, 86.603 41.177 C 84.460 40.290, 82.193 39.050, 81.565 38.422 C 80.937 37.794, 76.356 35.671, 71.385 33.706 C 66.414 31.740, 57.102 27.610, 50.691 24.529 C 44.281 21.447, 38.815 18.913, 38.546 18.898 C 38.276 18.883, 33.889 17.089, 28.796 14.913 C 16.615 9.706, 15.376 9.533, 12.301 12.608" stroke="none" fill="#eaeaea" fill-rule="evenodd"/></svg>